<?xml version="1.0" encoding="utf-8"?>
<!-- Generator: Adobe Illustrator 19.0.0, SVG Export Plug-In . SVG Version: 6.00 Build 0)  -->
<svg version="1.1" id="Layer_1" xmlns="http://www.w3.org/2000/svg" xmlns:xlink="http://www.w3.org/1999/xlink" x="0px" y="0px"
	 viewBox="0 0 78 75.8" style="enable-background:new 0 0 78 75.8;" xml:space="preserve">
<style type="text/css">
	.st0{fill:#010101;}
</style>
<g id="wifi-alt_2_">
	<path class="st0" d="M46.5,27.8c0-4.2-3.4-7.5-7.5-7.5c-4.2,0-7.5,3.4-7.5,7.5c0,3.3,2.2,6.1,5.2,7.1L33,75.8h12L41.4,35
		C44.4,34,46.5,31.2,46.5,27.8z"/>
	<path class="st0" d="M16,4.2L11.8,0C4.5,7.1,0,16.9,0,27.8c0,10.9,4.5,20.8,11.8,27.8l4.2-4.2c-6.2-6-10-14.4-10-23.6
		C6,18.6,9.8,10.2,16,4.2z"/>
	<path class="st0" d="M22.7,10.9c-4.5,4.3-7.2,10.3-7.2,16.9c0,6.7,2.8,12.6,7.2,16.9l4.2-4.2c-3.4-3.2-5.5-7.7-5.5-12.7
		c0-5,2.1-9.5,5.5-12.7L22.7,10.9z"/>
	<path class="st0" d="M66.2,0L62,4.2c6.2,6,10,14.4,10,23.6c0,9.3-3.8,17.6-10,23.6l4.2,4.2C73.5,48.6,78,38.8,78,27.8
		C78,16.9,73.5,7.1,66.2,0z"/>
	<path class="st0" d="M55.3,10.9l-4.2,4.2c3.4,3.2,5.5,7.7,5.5,12.7c0,5-2.1,9.5-5.5,12.7l4.2,4.2c4.4-4.3,7.2-10.3,7.2-16.9
		C62.6,21.2,59.8,15.2,55.3,10.9z"/>
</g>
</svg>
